<svg xmlns="http://www.w3.org/2000/svg" xmlns:xlink="http://www.w3.org/1999/xlink" width="285" zoomAndPan="magnify" viewBox="0 0 213.75 74.999997" height="100" preserveAspectRatio="xMidYMid meet" version="1.0"><defs><g/></defs><g fill="#000000" fill-opacity="1"><g transform="translate(28.202168, 51.051887)"><g><path d="M 18.703125 -5.625 L 19.828125 -4.953125 C 18.4375 -2.984375 17.59375 -2.09375 16.15625 -1.25 C 14.421875 -0.140625 12.40625 0.453125 10.3125 0.453125 C 5 0.453125 0.796875 -4.109375 0.796875 -9.828125 C 0.796875 -16.078125 5.453125 -20.984375 11.34375 -20.984375 C 15.484375 -20.984375 18.921875 -18.65625 18.921875 -15.84375 C 18.921875 -14.109375 17.671875 -13.078125 15.71875 -13.078125 C 14.6875 -13.078125 13.609375 -13.609375 13.125 -14.375 C 12.71875 -15.140625 12.671875 -15.40625 12.546875 -18.078125 C 12.5 -18.96875 12.1875 -19.421875 11.703125 -19.421875 C 10.453125 -19.421875 9.421875 -16.203125 9.421875 -12.359375 C 9.421875 -7.328125 11.609375 -4.109375 15.140625 -4.109375 C 16.609375 -4.109375 17.640625 -4.546875 18.703125 -5.625 Z M 18.703125 -5.625 "/></g></g></g><g fill="#000000" fill-opacity="1"><g transform="translate(47.933719, 51.051887)"><g><path d="M 11.15625 -15.84375 L 11.15625 -2.953125 C 11.15625 -1.875 11.5625 -1.078125 12.359375 -0.578125 L 12.359375 0 L 0.9375 0 L 0.9375 -0.578125 C 1.734375 -1.078125 2.140625 -1.875 2.140625 -2.953125 L 2.140625 -15.765625 C 2.140625 -16.96875 1.828125 -17.453125 0.984375 -17.671875 L 0.984375 -18.890625 C 5.40625 -19.59375 6.03125 -19.78125 10 -21.109375 L 11.15625 -21.109375 L 11.15625 -17.765625 C 12.453125 -20.046875 13.75 -20.984375 15.671875 -20.984375 C 17.59375 -20.984375 19.015625 -19.734375 19.015625 -17.984375 C 19.015625 -16.203125 17.640625 -14.828125 15.84375 -14.828125 C 14.90625 -14.828125 14.46875 -15 13.4375 -16.03125 C 12.953125 -16.515625 12.671875 -16.609375 12.28125 -16.609375 C 11.734375 -16.609375 11.46875 -16.421875 11.15625 -15.84375 Z M 11.15625 -15.84375 "/></g></g></g><g fill="#000000" fill-opacity="1"><g transform="translate(66.013529, 51.051887)"><g><path d="M 24.6875 0 L 18.171875 0 L 16.15625 -7.40625 L 13.296875 0 L 6.703125 0 L 0.71875 -17.28125 C 0.3125 -18.34375 -0.265625 -19.0625 -1.34375 -19.640625 L -1.34375 -20.21875 L 10.796875 -20.21875 L 10.796875 -19.640625 C 9.90625 -19.0625 9.640625 -18.65625 9.640625 -17.953125 C 9.640625 -17.71875 9.6875 -17.5 9.78125 -17.28125 L 13.4375 -5.796875 L 15.265625 -10.53125 L 13.4375 -17.28125 C 12.953125 -18.484375 12.59375 -18.96875 11.5625 -19.640625 L 11.5625 -20.21875 L 23.25 -20.21875 L 23.25 -19.640625 C 22.3125 -18.96875 22.046875 -18.609375 22.046875 -17.859375 C 22.046875 -17.71875 22.09375 -17.5 22.140625 -17.28125 L 25.21875 -5.796875 L 28.796875 -17.140625 C 28.84375 -17.328125 28.875 -17.453125 28.875 -17.765625 C 28.875 -18.609375 28.34375 -18.96875 26.609375 -19.640625 L 26.609375 -20.21875 L 34.015625 -20.21875 L 34.015625 -19.640625 C 32.046875 -18.796875 31.375 -18.296875 30.890625 -17.28125 Z M 24.6875 0 "/></g></g></g><g fill="#000000" fill-opacity="1"><g transform="translate(98.110775, 51.051887)"><g><path d="M 14.109375 0 L 14.109375 -2.140625 C 12.546875 -0.40625 10.71875 0.453125 8.609375 0.453125 C 6.34375 0.453125 4.015625 -0.765625 2.71875 -2.546875 C 1.421875 -4.28125 0.796875 -6.734375 0.796875 -9.828125 C 0.796875 -16.65625 4.15625 -20.984375 9.546875 -20.984375 C 11.390625 -20.984375 12.453125 -20.671875 14.109375 -19.515625 L 14.109375 -25 C 14.109375 -26.203125 13.75 -26.6875 12.90625 -26.921875 L 12.90625 -28.125 C 17.359375 -28.84375 18.03125 -29.0625 21.96875 -30.359375 L 23.125 -30.359375 L 23.125 -2.953125 C 23.125 -1.875 23.53125 -1.078125 24.328125 -0.578125 L 24.328125 0 Z M 14.109375 -3.84375 L 14.109375 -15.671875 C 14.109375 -17.765625 13.65625 -18.609375 12.453125 -18.609375 C 12.046875 -18.609375 11.703125 -18.484375 11.46875 -18.265625 C 10.453125 -17.234375 9.90625 -14.28125 9.90625 -10.484375 C 9.90625 -5.84375 10.9375 -3.21875 12.765625 -3.21875 C 13.265625 -3.21875 13.53125 -3.34375 14.109375 -3.84375 Z M 14.109375 -3.84375 "/></g></g></g><g fill="#000000" fill-opacity="1"><g transform="translate(123.422516, 51.051887)"><g><path d="M 22.859375 -2.140625 L 23.75 -1.109375 C 21.609375 0.09375 20.3125 0.453125 18.296875 0.453125 C 15.40625 0.453125 13.53125 -0.578125 12.671875 -2.671875 C 9.859375 -0.171875 8.578125 0.453125 5.984375 0.453125 C 2.546875 0.453125 0.046875 -1.5625 0.046875 -4.28125 C 0.046875 -6.421875 1.34375 -8.078125 4.375 -9.6875 C 6.65625 -10.890625 6.96875 -10.984375 12.671875 -13.125 L 12.671875 -17.953125 C 12.671875 -18.96875 12.328125 -19.46875 11.609375 -19.46875 C 10.671875 -19.46875 10.3125 -18.921875 10 -17.1875 C 9.640625 -14.90625 8.296875 -13.65625 6.34375 -13.65625 C 4.375 -13.65625 2.8125 -14.90625 2.8125 -16.46875 C 2.8125 -19.203125 6.828125 -20.984375 12.953125 -20.984375 C 18.75 -20.984375 21.65625 -19.15625 21.65625 -15.53125 L 21.65625 -2.453125 C 21.65625 -2.015625 21.78125 -1.78125 22.09375 -1.78125 C 22.28125 -1.78125 22.546875 -1.921875 22.859375 -2.140625 Z M 12.671875 -4.203125 L 12.671875 -11.390625 C 10 -10.171875 8.921875 -8.75 8.921875 -6.25 C 8.921875 -4.515625 9.734375 -3.4375 10.984375 -3.4375 C 11.515625 -3.4375 11.96875 -3.609375 12.671875 -4.203125 Z M 12.671875 -4.203125 "/></g></g></g><g fill="#000000" fill-opacity="1"><g transform="translate(147.127156, 51.051887)"><g><path d="M 14.546875 -18.4375 L 11.25 -18.4375 L 11.25 -3.390625 C 11.25 -2.546875 11.515625 -2.09375 12.015625 -2.09375 C 12.40625 -2.09375 12.859375 -2.359375 13.265625 -2.859375 L 14.375 -2.015625 C 12.359375 -0.171875 10.765625 0.453125 8.03125 0.453125 C 6.25 0.453125 4.546875 0.046875 3.53125 -0.625 C 2.671875 -1.203125 2.234375 -2.1875 2.234375 -3.578125 L 2.234375 -18.4375 L -0.265625 -18.4375 L -0.265625 -20.21875 C 4.546875 -22 6.921875 -23.703125 9.90625 -27.8125 L 11.25 -27.8125 L 11.25 -20.21875 L 14.546875 -20.21875 Z M 14.546875 -18.4375 "/></g></g></g><g fill="#000000" fill-opacity="1"><g transform="translate(161.591006, 51.051887)"><g><path d="M 22.859375 -2.140625 L 23.75 -1.109375 C 21.609375 0.09375 20.3125 0.453125 18.296875 0.453125 C 15.40625 0.453125 13.53125 -0.578125 12.671875 -2.671875 C 9.859375 -0.171875 8.578125 0.453125 5.984375 0.453125 C 2.546875 0.453125 0.046875 -1.5625 0.046875 -4.28125 C 0.046875 -6.421875 1.34375 -8.078125 4.375 -9.6875 C 6.65625 -10.890625 6.96875 -10.984375 12.671875 -13.125 L 12.671875 -17.953125 C 12.671875 -18.96875 12.328125 -19.46875 11.609375 -19.46875 C 10.671875 -19.46875 10.3125 -18.921875 10 -17.1875 C 9.640625 -14.90625 8.296875 -13.65625 6.34375 -13.65625 C 4.375 -13.65625 2.8125 -14.90625 2.8125 -16.46875 C 2.8125 -19.203125 6.828125 -20.984375 12.953125 -20.984375 C 18.75 -20.984375 21.65625 -19.15625 21.65625 -15.53125 L 21.65625 -2.453125 C 21.65625 -2.015625 21.78125 -1.78125 22.09375 -1.78125 C 22.28125 -1.78125 22.546875 -1.921875 22.859375 -2.140625 Z M 12.671875 -4.203125 L 12.671875 -11.390625 C 10 -10.171875 8.921875 -8.75 8.921875 -6.25 C 8.921875 -4.515625 9.734375 -3.4375 10.984375 -3.4375 C 11.515625 -3.4375 11.96875 -3.609375 12.671875 -4.203125 Z M 12.671875 -4.203125 "/></g></g></g><path stroke-linecap="butt" transform="matrix(0.749124, 0, 0, 0.749124, 28.199582, 56.585096)" fill="none" stroke-linejoin="miter" d="M -0.000485188 1.497664 L 209.713266 1.497664 " stroke="#ffc800" stroke-width="3" stroke-opacity="1" stroke-miterlimit="4"/></svg>